<svg width="1728" height="4370" viewBox="0 0 1728 4370" fill="none" xmlns="http://www.w3.org/2000/svg">
<path d="M-5.99997 4221.27C865.663 4392.4 1304.54 4445.02 1722 4221.27L1722 3287.25C1390.47 2790.04 278.5 3926.28 -5.99988 3695.56L-5.99997 4221.27Z" fill="#202020" fill-opacity="0.31"/>
<path d="M0 0H1728V518.983C1396.47 1009.83 806.04 706.594 0 518.983V0Z" fill="#202020" fill-opacity="0.31"/>
<path d="M1728 1045.37C856.337 912.39 417.458 871.496 0 1045.37V1771.18C331.53 2157.56 1443.5 1274.6 1728 1453.89V1045.37Z" fill="#202020" fill-opacity="0.31"/>
<path d="M1728 2137.58C856.337 2004.6 417.458 1963.7 0 2137.58V2863.39C331.53 3249.77 1443.5 2366.81 1728 2546.1V2137.58Z" fill="#202020" fill-opacity="0.31"/>
</svg>
