<svg width="1728" height="2963" viewBox="0 0 1728 2963" fill="none" xmlns="http://www.w3.org/2000/svg">
<path d="M0 0H1728V518.983C1396.47 1009.83 806.04 706.594 0 518.983V0Z" fill="#2B2B2B" fill-opacity="0.31"/>
<path d="M1728 1045.37C856.337 912.39 417.458 871.496 0 1045.37V1771.18C331.53 2157.56 1443.5 1274.6 1728 1453.89V1045.37Z" fill="#2B2B2B" fill-opacity="0.31"/>
<path d="M1728 2137.58C856.337 2004.6 417.458 1963.7 0 2137.58V2863.39C331.53 3249.77 1443.5 2366.81 1728 2546.1V2137.58Z" fill="#2B2B2B" fill-opacity="0.31"/>
<path d="M1829.5 500C1829.5 566.004 1776.66 619.5 1711.5 619.5C1646.34 619.5 1593.5 566.004 1593.5 500C1593.5 433.996 1646.34 380.5 1711.5 380.5C1776.66 380.5 1829.5 433.996 1829.5 500Z" stroke="#D5D5D5"/>
<path d="M228.5 1173C228.5 1275.45 146.117 1358.5 44.5 1358.5C-57.1166 1358.5 -139.5 1275.45 -139.5 1173C-139.5 1070.55 -57.1166 987.5 44.5 987.5C146.117 987.5 228.5 1070.55 228.5 1173Z" stroke="#D5D5D5"/>
<path d="M1592.5 2392.22C1538.42 2338.14 1537.95 2250.93 1591.44 2197.44C1644.93 2143.95 1732.14 2144.42 1786.22 2198.5C1840.3 2252.59 1840.77 2339.79 1787.28 2393.28C1733.79 2446.77 1646.59 2446.3 1592.5 2392.22Z" stroke="#D5D5D5"/>
<path d="M176.5 1173C176.5 1253.36 112.024 1318.5 32.5 1318.5C-47.0241 1318.5 -111.5 1253.36 -111.5 1173C-111.5 1092.64 -47.0241 1027.5 32.5 1027.5C112.024 1027.5 176.5 1092.64 176.5 1173Z" stroke="#D5D5D5"/>
<path d="M1619.9 2364.82C1577.46 2322.38 1576.99 2254.04 1618.84 2212.2C1660.69 2170.35 1729.02 2170.81 1771.47 2213.26C1813.91 2255.7 1814.38 2324.03 1772.53 2365.88C1730.68 2407.73 1662.35 2407.26 1619.9 2364.82Z" stroke="#D5D5D5"/>
<ellipse cx="164" cy="1119.5" rx="20" ry="21.5" fill="#D9D9D9"/>
<ellipse cx="1655.02" cy="2192.02" rx="14.9027" ry="16.4027" transform="rotate(135 1655.02 2192.02)" fill="#D9D9D9"/>
<ellipse cx="1612.09" cy="2356.09" rx="7.17816" ry="8.67816" transform="rotate(135 1612.09 2356.09)" fill="#D9D9D9"/>
<ellipse cx="135" cy="1071.5" rx="7" ry="8.5" fill="#D9D9D9"/>
<ellipse cx="1695.16" cy="2396.52" rx="5.21594" ry="6.71594" transform="rotate(135 1695.16 2396.52)" fill="#D9D9D9"/>
</svg>
