<svg width="67" height="69" viewBox="0 0 67 69" fill="none" xmlns="http://www.w3.org/2000/svg">
<rect x="0.783203" y="0.567627" width="66.2232" height="68.442" fill="white"/>
<path d="M27.3801 63.7005C25.0294 63.7005 23.0228 63.3708 21.3601 62.7115V58.7555C22.0481 59.0422 22.8508 59.2858 23.7681 59.4865C24.7141 59.6585 25.6458 59.7445 26.5631 59.7445C28.4838 59.7445 29.8168 59.3575 30.5621 58.5835C31.3361 57.7808 31.7231 56.5052 31.7231 54.7565V35.5785H36.4101V55.5305C36.4101 58.1678 35.6504 60.1888 34.1311 61.5935C32.6404 62.9982 30.3901 63.7005 27.3801 63.7005ZM49.9836 63.7005C46.4003 63.7005 43.5193 63.2418 41.3406 62.3245V58.1965C42.5733 58.6552 43.892 59.0278 45.2966 59.3145C46.73 59.6012 48.149 59.7445 49.5536 59.7445C51.761 59.7445 53.4093 59.4865 54.4986 58.9705C55.6166 58.4545 56.1756 57.4225 56.1756 55.8745C56.1756 54.9285 55.9463 54.1688 55.4876 53.5955C55.029 53.0222 54.2693 52.5348 53.2086 52.1335C52.148 51.7035 50.686 51.2592 48.8226 50.8005C45.8413 50.0265 43.7486 49.0518 42.5446 47.8765C41.3406 46.6725 40.7386 45.0242 40.7386 42.9315C40.7386 40.4948 41.6273 38.5885 43.4046 37.2125C45.182 35.8365 47.8336 35.1485 51.3596 35.1485C52.965 35.1485 54.47 35.2632 55.8746 35.4925C57.308 35.7218 58.426 35.9798 59.2286 36.2665V40.3945C57.05 39.5632 54.642 39.1475 52.0046 39.1475C49.9406 39.1475 48.3353 39.4198 47.1886 39.9645C46.042 40.5092 45.4686 41.4982 45.4686 42.9315C45.4686 43.7628 45.6693 44.4365 46.0706 44.9525C46.472 45.4685 47.16 45.9128 48.1346 46.2855C49.138 46.6582 50.514 47.0738 52.2626 47.5325C54.5273 48.1058 56.276 48.7938 57.5086 49.5965C58.77 50.3705 59.6443 51.2878 60.1316 52.3485C60.6476 53.3805 60.9056 54.5558 60.9056 55.8745C60.9056 58.3112 60.0026 60.2318 58.1966 61.6365C56.3906 63.0125 53.653 63.7005 49.9836 63.7005Z" fill="#313131"/>
</svg>
